<?xml version="1.0" encoding="UTF-8"?>
<!DOCTYPE svg PUBLIC "-//W3C//DTD SVG 1.0//EN" "http://www.w3.org/TR/2001/REC-SVG-20010904/DTD/svg10.dtd">
<!-- Creator: CorelDRAW -->
<svg xmlns="http://www.w3.org/2000/svg" xml:space="preserve" width="0.730949in" height="0.21785in" version="1.0" shape-rendering="geometricPrecision" text-rendering="geometricPrecision" image-rendering="optimizeQuality" fill-rule="evenodd" clip-rule="evenodd"
viewBox="0 0 532.62 158.74"
 xmlns:xlink="http://www.w3.org/1999/xlink"
 xmlns:xodm="http://www.corel.com/coreldraw/odm/2003">
 <g id="Layer_x0020_1">
  <metadata id="CorelCorpID_0Corel-Layer"/>
  <g id="_3236354347696">
   <circle fill="#FEFEFE" cx="95.96" cy="79.28" r="79.28"/>
   <path fill="#231F20" fill-rule="nonzero" d="M237.17 98.58c-11.77,0 -21.25,-9.36 -21.25,-20.97 0,-11.62 9.48,-20.98 21.25,-20.98 11.6,0 21.25,9.36 21.25,20.98 0,11.62 -9.66,20.97 -21.25,20.97zm21.43 -59.46c-6.51,-3.47 -13.7,-5.38 -21.43,-5.38 -24.59,0 -44.62,19.59 -44.62,43.87 0,24.27 20.03,44.04 44.62,44.04 7.73,0 14.92,-2.09 21.43,-5.56 -0.17,10.92 -9.13,19.59 -20.03,19.59l-23.35 0 0 23.06 26.52 0c22.12,0 40.05,-17.68 40.05,-39.53l0 -84.95 -23.19 4.87z"/>
   <path fill="#231F20" fill-rule="nonzero" d="M314.81 77.08l34.95 -15.43c-3.69,-3.12 -8.61,-5.03 -13.7,-5.03 -11.6,0 -21.08,9.19 -21.25,20.46zm37.94 13.35c6.32,3.47 14.75,8.15 20.38,11.27 -7.91,11.96 -21.61,19.94 -37.06,19.94 -24.59,0 -44.62,-19.76 -44.62,-44.04 0,-24.27 20.02,-43.86 44.62,-43.86 14.75,0 27.75,7.11 35.83,18.03 3.69,4.85 6.32,10.4 7.55,16.47l-22.31 9.88 -34.95 15.43c3.86,3.12 8.61,5.03 13.88,5.03 6.67,0 12.82,-3.12 16.68,-8.15z"/>
   <path fill="#231F20" fill-rule="nonzero" d="M430.91 97.88c-8.25,0 -14.92,-6.59 -14.92,-14.91l0 -25.65 17.73 0 0 -23.06 -17.73 0 0 -19.56 -23.37 0 0 19.56 -7.91 0 0 23.06 7.91 0 0 32.59c0,17.16 14.06,31.04 31.45,31.04l13.35 0 0 -23.06 -6.51 0z"/>
   <polygon fill="#FEFEFE" fill-rule="nonzero" points="447.08,34.26 470.27,34.26 470.27,120.94 447.08,120.94 "/>
   <path fill="#FEFEFE" fill-rule="nonzero" d="M526.13 97.88c-8.26,0 -14.94,-6.59 -14.94,-14.91l0 -25.65 17.75 0 0 -23.06 -17.75 0 0 -19.56 -23.35 0 0 19.56 -7.91 0 0 23.06 7.91 0 0 32.59c0,17.16 14.05,31.04 31.43,31.04l13.35 0 0 -23.06 -6.49 0z"/>
   <path fill="#FEFEFE" fill-rule="nonzero" d="M472.4 14.69c0,7.48 -6.14,13.55 -13.73,13.55 -7.58,0 -13.73,-6.07 -13.73,-13.55 0,-7.48 6.14,-13.55 13.73,-13.55 7.58,0 13.73,6.07 13.73,13.55z"/>
   <path fill="black" fill-rule="nonzero" d="M294 153.13l0 -18.76c0,-1.82 1.29,-3.26 3.27,-3.26 0.25,0 0.46,0.03 0.7,0.07l0 7.93c0.64,-1.44 2.5,-2.35 4.4,-2.35 3.45,0 5.4,2.64 5.4,5.93l0 10.45 -3.97 0 0 -9.6c0,-1.91 -0.82,-3.1 -2.41,-3.1 -1.37,0 -2.17,0.91 -2.17,2.13 -0.46,-0.13 -1.04,-0.72 -1.25,-1.29l0 11.86 -3.97 0z"/>
   <path fill="black" fill-rule="nonzero" d="M320.48 136.62c4,0 6.63,2.19 6.63,5.36 0,3.2 -2.62,5.59 -6.11,5.59 -2.6,0 -4.33,-1.32 -4.33,-3.29 0,-0.47 0.09,-0.91 0.27,-1.38 0.98,0.88 2.17,1.35 3.18,1.35 2.08,0 3.54,-0.75 3.54,-2.07 0,-0.85 -0.85,-1.72 -2.87,-1.72 -3.08,0 -4.91,1.66 -4.91,4.52 0,2.79 1.77,4.55 4.24,4.55 1.28,0 2.69,-0.19 3.69,-1.19l2.29 2.7c-1.47,1.63 -3.42,2.45 -5.8,2.45 -4.95,0 -8.4,-3.54 -8.4,-8.44 0,-5.02 3.6,-8.41 8.58,-8.41z"/>
   <path fill="black" fill-rule="nonzero" d="M331.08 134.36c0,-1.79 1.41,-3.26 3.3,-3.26 0.21,0 0.43,0.03 0.67,0.06l0 21.96 -3.97 0 0 -18.76z"/>
   <path fill="black" fill-rule="nonzero" d="M340.24 134.36c0,-1.79 1.41,-3.26 3.3,-3.26 0.22,0 0.43,0.03 0.67,0.06l0 21.96 -3.97 0 0 -18.76z"/>
   <path fill="black" fill-rule="nonzero" d="M352.64 139.98c1.8,0 3.54,0.88 3.76,2.76 -0.34,-0.22 -0.76,-0.34 -1.19,-0.34 -1.19,0 -2.53,0.91 -2.53,2.7 0,3.01 1.99,4.49 4.15,4.49 2.14,0 4.4,-1.35 4.4,-4.52 0,-2.86 -1.83,-4.68 -4.19,-4.71 -0.34,0 -0.67,0.03 -1.01,0.13 -0.73,-0.91 -1.92,-1.41 -3.18,-1.41 -0.83,0 -1.65,0.19 -2.35,0.63 1.65,-2.04 3.88,-3.2 6.44,-3.2 4.86,0 8.31,4.2 8.31,8.72 -0.03,4.71 -3.79,8.22 -8.21,8.22 -4.77,0 -8.4,-4.02 -8.4,-8.63 0,-2.42 0.98,-4.83 4,-4.83z"/>
   <path fill="#FEFEFE" fill-rule="nonzero" d="M385.26 153.69c-3.57,0 -7.36,-2.9 -7.36,-8.28 0,-4.87 3.32,-8.69 7.55,-8.69 1.42,0 2.63,0.45 3.41,1.26 0.62,0.64 0.94,1.5 0.92,2.48 0,0.62 -0.11,1.14 -0.3,1.48l-0.15 0.25 -0.16 -0.24c-0.59,-0.89 -1.9,-1.2 -2.93,-1.2 -2.83,0 -4.12,2.37 -4.12,4.58 0,2.1 1.21,4.36 3.88,4.36 3.58,0 3.97,-4.12 3.97,-5.9l0 -12.77 0.15 -0.03c0.19,-0.03 0.39,-0.03 0.58,-0.03 1.75,0 3.6,1.21 3.6,3.45l0 18.92 -4.34 0 0 -1.51c-1.33,1.23 -2.95,1.88 -4.7,1.88z"/>
   <path fill="#FEFEFE" fill-rule="nonzero" d="M399.32 136.96c-0.34,-1.24 -0.5,-2.21 -0.5,-3.06 0,-1.95 0.86,-3.08 2.36,-3.08 1.69,0 2.6,1.37 2.6,2.67 0,1.53 -1.2,2.04 -2.42,2.44 -1.14,0.36 -1.5,0.59 -1.69,1.05l-0.2 0.5 -0.14 -0.52zm-0.25 16.36l0 -13.15c0,-1.99 1.53,-3.55 3.48,-3.55 0.22,0 0.48,0.03 0.7,0.07l0.15 0.03 0 16.6 -4.33 0z"/>
   <path fill="#FEFEFE" fill-rule="nonzero" d="M413.43 153.63c-2.29,0 -4.37,-1.05 -5.7,-2.87l-0.09 -0.13 2.69 -2.97 0.13 0.16c1.32,1.58 2.65,1.75 3.16,1.75 0.89,0 1.53,-0.42 1.53,-1 0,-0.83 -1.12,-1.43 -2.42,-2.12 -1.98,-1.06 -4.45,-2.36 -4.45,-5.31 0,-3.15 2.72,-4.8 5.41,-4.8 2.17,0 4.37,0.97 4.37,3.14 0,1.14 -0.63,2.13 -1.64,2.59l-0.17 0.08 -0.07 -0.18c-0.42,-1.08 -1.58,-1.57 -2.49,-1.57 -0.3,0 -1.28,0.06 -1.28,0.81 0,0.67 0.94,1.11 2.13,1.66 1.98,0.91 4.68,2.15 4.68,5.56 0,3.42 -2.9,5.21 -5.77,5.21z"/>
   <path fill="#FEFEFE" fill-rule="nonzero" d="M430.8 153.57c-4.9,0 -8.46,-3.72 -8.46,-8.85 0,-4.65 3.74,-8.28 8.52,-8.28 3.27,0 5.49,1.98 5.92,3.85 0.27,1.19 -0.2,2.23 -1.26,2.78l-0.2 0.1 -0.06 -0.22c-0.38,-1.37 -1.93,-2.25 -4.04,-2.27l0 0c-2.77,0 -4.52,1.69 -4.52,4.29 0,2.71 1.51,4.33 4.03,4.33 1.75,0 2.89,-0.48 3.7,-1.55l0.12 -0.17 2.74 2.64 -0.09 0.13c-1.46,2.17 -3.55,3.22 -6.41,3.22z"/>
   <path fill="#FEFEFE" fill-rule="nonzero" d="M449.13 153.63c-4.73,0 -8.58,-3.95 -8.58,-8.82 0,-1.51 0.41,-5.02 4.18,-5.02 1.66,0 3.69,0.77 3.94,2.93l0.04 0.39 -0.32 -0.21c-0.31,-0.2 -0.7,-0.32 -1.09,-0.32 -1.14,0 -2.35,0.88 -2.35,2.51 0,2.97 1.99,4.3 3.97,4.3 2.1,0 4.21,-1.34 4.21,-4.33 0,-2.63 -1.65,-4.49 -4,-4.52 -0.36,0 -0.67,0.04 -0.96,0.12l-0.11 0.03 -0.08 -0.09c-0.67,-0.84 -1.81,-1.35 -3.03,-1.35 -0.85,0 -1.63,0.21 -2.25,0.6l-0.94 0.59 0.7 -0.87c1.73,-2.14 4.01,-3.27 6.58,-3.27 4.68,0 8.49,4 8.49,8.91 -0.03,4.72 -3.72,8.41 -8.4,8.41z"/>
   <path fill="#FEFEFE" fill-rule="nonzero" d="M468.37 153.6c-6.24,0 -7.09,-4.69 -7.09,-9.29l0 -4.17c0,-2.21 1.21,-3.48 3.33,-3.48 0.25,0 0.49,0.03 0.76,0.05l0.17 0.02 0.11 0.18 0 7.78c0,2.79 0.2,4.77 2.72,4.77 2.6,0 2.81,-2.01 2.81,-4.64l0 -8.1 4.31 0 0 7.03c0.05,3.91 -0.64,6.46 -2.15,8.04 -1.16,1.2 -2.83,1.81 -4.96,1.81z"/>
   <path fill="#FEFEFE" fill-rule="nonzero" d="M489.69 153.32l0 -9.95c0,-1.31 -0.63,-2.7 -2.38,-2.7 -0.72,0 -1.34,0.23 -1.69,0.62 -0.24,0.27 -0.35,0.61 -0.32,0.99l0.02 0.28 -0.26 -0.08c-0.36,-0.11 -0.75,-0.44 -1.04,-0.84l0 11.67 -4.31 0 0 -16.6 4.31 0 0 1.39c0.96,-1.2 2.9,-1.65 4.12,-1.65 3.53,0 5.89,2.5 5.89,6.21l0 10.64 -4.33 0z"/>
   <path fill="#FEFEFE" fill-rule="nonzero" d="M503.56 153.47c-1.82,0 -3.67,-1.27 -3.67,-3.7l0 -9.29 -1.95 0 0 -3.77 1.95 0 0 -0.69c0,-2.22 1.83,-3.42 3.54,-3.42 0.05,-0.01 0.11,-0.01 0.18,-0.01 0.14,0 0.27,0.02 0.41,0.04l0.16 0.02 0.04 0.17 0 3.89 3.54 0 0 0.19c0,2.34 -0.99,3.58 -2.87,3.58l-0.67 0 0 8.16c0,0.5 0.41,0.87 0.95,0.87 0.78,0 1.39,-0.22 1.62,-0.6l0.2 -0.33 0.13 0.36c0.13,0.36 0.2,0.73 0.2,1.07 0,1.71 -1.29,3.45 -3.76,3.45z"/>
   <path fill="#FEFEFE" fill-rule="nonzero" d="M516.67 153.63c-2.29,0 -4.37,-1.05 -5.71,-2.87l-0.09 -0.13 2.69 -2.97 0.13 0.16c1.32,1.58 2.65,1.75 3.16,1.75 0.89,0 1.53,-0.42 1.53,-1 0,-0.83 -1.12,-1.43 -2.42,-2.12 -1.98,-1.06 -4.45,-2.36 -4.45,-5.31 0,-3.15 2.72,-4.8 5.4,-4.8 2.17,0 4.37,0.97 4.37,3.14 0,1.14 -0.63,2.13 -1.64,2.59l-0.17 0.08 -0.07 -0.18c-0.42,-1.08 -1.58,-1.57 -2.49,-1.57 -0.3,0 -1.28,0.06 -1.28,0.81 0,0.67 0.94,1.11 2.13,1.66 1.97,0.91 4.68,2.15 4.68,5.56 0,3.42 -2.9,5.21 -5.77,5.21z"/>
   <path fill="#FEFEFE" fill-rule="nonzero" d="M530.62 147.13c-2.6,-0.09 -4.02,-1.23 -4.02,-3.23l0 -12.93 4.21 0 0 16.16 -0.19 -0.01zm-1.89 6.49c-1.68,0 -2.69,-1.25 -2.69,-3.36 0,-1.09 0.21,-2.12 0.52,-3.34l0.15 -0.56 0.2 0.54c0.26,0.68 1.01,0.9 1.81,1.13 0.68,0.2 1.38,0.4 1.88,0.91 0.48,0.49 0.75,1.19 0.75,1.92 0,1.52 -1.18,2.76 -2.63,2.76z"/>
   <path fill="black" fill-rule="nonzero" d="M365.82 154.16l1.1 -2.94c0.37,-0.98 0.85,-1.51 1.59,-1.51 0.52,0 1.16,0.3 2.05,0.9l-2.38 3.48c-0.23,0.34 -0.6,0.52 -0.99,0.52 -0.33,0 -0.85,-0.16 -1.37,-0.44z"/>
   <g>
    <g>
     <path fill="none" fill-rule="nonzero" stroke="white" stroke-width="38.7" stroke-linejoin="round" stroke-miterlimit="10" d="M22.99 69.16l-4.57 5.36c-0.23,0.26 -0.41,0.54 -0.56,0.85l-7.85 1.72c-0.15,0.03 -0.31,0.05 -0.46,0.05 -1.3,0.05 -2.48,-0.81 -2.78,-2.1 -0.32,-1.45 0.61,-2.88 2.07,-3.2l14.15 -2.67z"/>
     <path id="_1" fill="#231F20" fill-rule="nonzero" d="M22.99 69.16l-4.57 5.36c-0.23,0.26 -0.41,0.54 -0.56,0.85l-7.85 1.72c-0.15,0.03 -0.31,0.05 -0.46,0.05 -1.3,0.05 -2.48,-0.81 -2.78,-2.1 -0.32,-1.45 0.61,-2.88 2.07,-3.2l14.15 -2.67z"/>
    </g>
    <g>
     <path fill="none" fill-rule="nonzero" stroke="white" stroke-width="38.7" stroke-linejoin="round" stroke-miterlimit="10" d="M23.56 86.96c-0.32,-1.45 -1.78,-2.36 -3.25,-2.04l-15.74 3.43c-1.47,0.32 -2.4,1.76 -2.07,3.21 0.29,1.29 1.48,2.16 2.77,2.11 0.16,-0.01 0.32,-0.03 0.48,-0.06l15.74 -3.43c1.47,-0.32 2.4,-1.76 2.07,-3.21z"/>
     <path id="_1_0" fill="#231F20" fill-rule="nonzero" d="M23.56 86.96c-0.32,-1.45 -1.78,-2.36 -3.25,-2.04l-15.74 3.43c-1.47,0.32 -2.4,1.76 -2.07,3.21 0.29,1.29 1.48,2.16 2.77,2.11 0.16,-0.01 0.32,-0.03 0.48,-0.06l15.74 -3.43c1.47,-0.32 2.4,-1.76 2.07,-3.21z"/>
    </g>
    <g>
     <path fill="none" fill-rule="nonzero" stroke="white" stroke-width="38.7" stroke-linejoin="round" stroke-miterlimit="10" d="M40.39 96.09l8.99 3.55 -23.85 5.2c-0.17,0.04 -0.32,0.06 -0.48,0.07 -1.3,0.04 -2.48,-0.82 -2.77,-2.12 -0.32,-1.45 0.59,-2.88 2.07,-3.2l16.03 -3.5z"/>
     <path id="_1_1" fill="#231F20" fill-rule="nonzero" d="M40.39 96.09l8.99 3.55 -23.85 5.2c-0.17,0.04 -0.32,0.06 -0.48,0.07 -1.3,0.04 -2.48,-0.82 -2.77,-2.12 -0.32,-1.45 0.59,-2.88 2.07,-3.2l16.03 -3.5z"/>
    </g>
    <g>
     <path fill="none" fill-rule="nonzero" stroke="white" stroke-width="38.7" stroke-linejoin="round" stroke-miterlimit="10" d="M69.13 95.34l-13.41 2.93c0.13,-0.2 0.23,-0.4 0.32,-0.63l2.34 -5.47 9.55 -2.07c1.47,-0.32 2.93,0.6 3.24,2.05 0.32,1.45 -0.59,2.88 -2.06,3.2z"/>
     <path id="_1_2" fill="#231F20" fill-rule="nonzero" d="M69.13 95.34l-13.41 2.93c0.13,-0.2 0.23,-0.4 0.32,-0.63l2.34 -5.47 9.55 -2.07c1.47,-0.32 2.93,0.6 3.24,2.05 0.32,1.45 -0.59,2.88 -2.06,3.2z"/>
    </g>
    <g>
     <path fill="none" fill-rule="nonzero" stroke="white" stroke-width="38.7" stroke-linejoin="round" stroke-miterlimit="10" d="M75.2 104.08l-27.85 6.07c-1.47,0.32 -2.4,1.76 -2.07,3.2 0.29,1.29 1.47,2.16 2.77,2.11 0.16,-0.01 0.32,-0.03 0.48,-0.06l27.85 -6.08c1.47,-0.32 2.4,-1.75 2.07,-3.2 -0.32,-1.45 -1.78,-2.36 -3.25,-2.04z"/>
     <path id="_1_3" fill="#231F20" fill-rule="nonzero" d="M75.2 104.08l-27.85 6.07c-1.47,0.32 -2.4,1.76 -2.07,3.2 0.29,1.29 1.47,2.16 2.77,2.11 0.16,-0.01 0.32,-0.03 0.48,-0.06l27.85 -6.08c1.47,-0.32 2.4,-1.75 2.07,-3.2 -0.32,-1.45 -1.78,-2.36 -3.25,-2.04z"/>
    </g>
    <g>
     <path fill="none" fill-rule="nonzero" stroke="white" stroke-width="38.7" stroke-linejoin="round" stroke-miterlimit="10" d="M136.75 83.85l-4.08 -15.17 19.1 -4.79 -0.51 8.63c-0.26,4.66 -3.53,8.58 -8.13,9.74l-6.38 1.59zm-9.43 -35.09l21.78 -5.47c0.92,-0.24 1.87,-0.02 2.6,0.57 0.73,0.6 1.12,1.48 1.07,2.42l-0.69 11.99 -20.79 5.22 -3.97 -14.73zm-13.16 40.76l-4.38 -15.1 17.62 -4.41 4.08 15.17 -17.32 4.34zm-10.13 -34.92l18.02 -4.53 3.95 14.74 -17.71 4.45 -4.25 -14.66zm-14.24 41.04c-0.12,-0.19 -0.25,-0.37 -0.35,-0.56l-7.65 -13.64 22.69 -5.69 4.38 15.1 -19.08 4.79zm-18.44 -32.86l27.41 -6.87 4.24 14.66 -23.92 6.01 -7.73 -13.8zm85.36 10.04l1.48 -25.91c0.13,-2.48 -0.69,-4.99 -2.5,-6.73 -2.14,-2.05 -5.08,-2.82 -7.94,-2.09l-79.11 19.84 -5.45 -9.73c-1.39,-2.47 -3.76,-4.26 -6.55,-4.93l-12.17 -2.92c-1.42,-0.48 -2.97,0.27 -3.45,1.67 -0.49,1.42 0.27,2.95 1.69,3.43l10.11 2.29c2.83,0.64 5.25,2.44 6.66,4.95l25.21 45.01c5.05,9.05 15.68,13.6 25.84,11.12l32.99 -8.13c1.76,-0.43 3.57,0.63 4.06,2.34 0.24,0.87 0.11,1.79 -0.35,2.56 -0.46,0.77 -1.2,1.33 -2.1,1.54l-40.15 9.89c-3.38,0.83 -6.31,3.08 -7.67,6.25 -1.12,2.6 -0.78,4.54 -0.78,4.54 0.17,4.03 4.08,7.05 8.28,5.93 2.36,-0.63 4.21,-2.61 4.64,-4.99 0.5,-2.75 -0.76,-5.26 -2.84,-6.58l24.92 -6.14c-0.79,1.12 -1.26,2.48 -1.2,3.95 0.15,3.55 3.18,6.31 6.78,6.16 3.59,-0.15 6.39,-3.14 6.24,-6.69 -0.1,-2.41 -1.55,-4.42 -3.58,-5.44l6.68 -1.65c2.32,-0.56 4.26,-2.01 5.46,-4.05 1.2,-2.02 1.52,-4.4 0.9,-6.68 -1.25,-4.54 -6.02,-7.29 -10.64,-6.16l-32.97 8.12c-5.52,1.36 -11.2,-0.02 -15.43,-3.38l50.7 -12.73c6.89,-1.72 11.83,-7.65 12.23,-14.64z"/>
     <path id="_1_4" fill="#231F20" fill-rule="nonzero" d="M136.75 83.85l-4.08 -15.17 19.1 -4.79 -0.51 8.63c-0.26,4.66 -3.53,8.58 -8.13,9.74l-6.38 1.59zm-9.43 -35.09l21.78 -5.47c0.92,-0.24 1.87,-0.02 2.6,0.57 0.73,0.6 1.12,1.48 1.07,2.42l-0.69 11.99 -20.79 5.22 -3.97 -14.73zm-13.16 40.76l-4.38 -15.1 17.62 -4.41 4.08 15.17 -17.32 4.34zm-10.13 -34.92l18.02 -4.53 3.95 14.74 -17.71 4.45 -4.25 -14.66zm-14.24 41.04c-0.12,-0.19 -0.25,-0.37 -0.35,-0.56l-7.65 -13.64 22.69 -5.69 4.38 15.1 -19.08 4.79zm-18.44 -32.86l27.41 -6.87 4.24 14.66 -23.92 6.01 -7.73 -13.8zm85.36 10.04l1.48 -25.91c0.13,-2.48 -0.69,-4.99 -2.5,-6.73 -2.14,-2.05 -5.08,-2.82 -7.94,-2.09l-79.11 19.84 -5.45 -9.73c-1.39,-2.47 -3.76,-4.26 -6.55,-4.93l-12.17 -2.92c-1.42,-0.48 -2.97,0.27 -3.45,1.67 -0.49,1.42 0.27,2.95 1.69,3.43l10.11 2.29c2.83,0.64 5.25,2.44 6.66,4.95l25.21 45.01c5.05,9.05 15.68,13.6 25.84,11.12l32.99 -8.13c1.76,-0.43 3.57,0.63 4.06,2.34 0.24,0.87 0.11,1.79 -0.35,2.56 -0.46,0.77 -1.2,1.33 -2.1,1.54l-40.15 9.89c-3.38,0.83 -6.31,3.08 -7.67,6.25 -1.12,2.6 -0.78,4.54 -0.78,4.54 0.17,4.03 4.08,7.05 8.28,5.93 2.36,-0.63 4.21,-2.61 4.64,-4.99 0.5,-2.75 -0.76,-5.26 -2.84,-6.58l24.92 -6.14c-0.79,1.12 -1.26,2.48 -1.2,3.95 0.15,3.55 3.18,6.31 6.78,6.16 3.59,-0.15 6.39,-3.14 6.24,-6.69 -0.1,-2.41 -1.55,-4.42 -3.58,-5.44l6.68 -1.65c2.32,-0.56 4.26,-2.01 5.46,-4.05 1.2,-2.02 1.52,-4.4 0.9,-6.68 -1.25,-4.54 -6.02,-7.29 -10.64,-6.16l-32.97 8.12c-5.52,1.36 -11.2,-0.02 -15.43,-3.38l50.7 -12.73c6.89,-1.72 11.83,-7.65 12.23,-14.64z"/>
    </g>
    <g>
     <path fill="none" fill-rule="nonzero" stroke="white" stroke-width="38.7" stroke-linejoin="round" stroke-miterlimit="10" d="M45.81 70.62c-0.04,0 -0.07,0 -0.11,0.01 -0.19,0.02 -0.38,0.07 -0.56,0.16 -0.17,0.09 -0.33,0.21 -0.46,0.38 -0.14,0.15 -0.23,0.33 -0.29,0.52 -0.06,0.19 -0.08,0.38 -0.06,0.58 0.02,0.19 0.07,0.38 0.17,0.55 0.09,0.17 0.22,0.33 0.38,0.46 0.15,0.13 0.33,0.22 0.52,0.28 0.15,0.05 0.29,0.07 0.44,0.07 0.05,0 0.1,-0 0.15,-0.01 0.19,-0.02 0.38,-0.07 0.56,-0.16 0.18,-0.09 0.34,-0.22 0.48,-0.38 0.13,-0.16 0.23,-0.34 0.29,-0.53 0.05,-0.19 0.07,-0.38 0.05,-0.57 -0.01,-0.19 -0.07,-0.38 -0.16,-0.55 -0.09,-0.17 -0.22,-0.33 -0.37,-0.46 -0.17,-0.14 -0.34,-0.23 -0.54,-0.28 -0.15,-0.04 -0.31,-0.07 -0.47,-0.07z"/>
     <path id="_1_5" fill="#231F20" fill-rule="nonzero" d="M45.81 70.62c-0.04,0 -0.07,0 -0.11,0.01 -0.19,0.02 -0.38,0.07 -0.56,0.16 -0.17,0.09 -0.33,0.21 -0.46,0.38 -0.14,0.15 -0.23,0.33 -0.29,0.52 -0.06,0.19 -0.08,0.38 -0.06,0.58 0.02,0.19 0.07,0.38 0.17,0.55 0.09,0.17 0.22,0.33 0.38,0.46 0.15,0.13 0.33,0.22 0.52,0.28 0.15,0.05 0.29,0.07 0.44,0.07 0.05,0 0.1,-0 0.15,-0.01 0.19,-0.02 0.38,-0.07 0.56,-0.16 0.18,-0.09 0.34,-0.22 0.48,-0.38 0.13,-0.16 0.23,-0.34 0.29,-0.53 0.05,-0.19 0.07,-0.38 0.05,-0.57 -0.01,-0.19 -0.07,-0.38 -0.16,-0.55 -0.09,-0.17 -0.22,-0.33 -0.37,-0.46 -0.17,-0.14 -0.34,-0.23 -0.54,-0.28 -0.15,-0.04 -0.31,-0.07 -0.47,-0.07z"/>
    </g>
    <g>
     <path fill="none" fill-rule="nonzero" stroke="white" stroke-width="38.7" stroke-linejoin="round" stroke-miterlimit="10" d="M48.76 87.43c-0.36,0 -0.73,-0.05 -1.09,-0.16 -0.48,-0.14 -0.92,-0.38 -1.32,-0.71 -0.4,-0.33 -0.72,-0.71 -0.94,-1.15 -0.22,-0.44 -0.36,-0.89 -0.4,-1.37 -0.05,-0.48 0,-0.95 0.14,-1.43 0.15,-0.47 0.38,-0.91 0.71,-1.3 0.33,-0.4 0.72,-0.71 1.16,-0.93 0.44,-0.23 0.91,-0.36 1.39,-0.41 0.12,-0.01 0.24,-0.02 0.36,-0.02 0.36,0 0.72,0.05 1.08,0.16 0.48,0.13 0.92,0.37 1.32,0.69 0.4,0.34 0.71,0.72 0.94,1.16 0.23,0.44 0.36,0.9 0.4,1.38 0.05,0.48 -0,0.95 -0.15,1.43 -0.14,0.47 -0.37,0.91 -0.71,1.31 -0.33,0.39 -0.72,0.7 -1.17,0.92 -0.45,0.22 -0.92,0.36 -1.4,0.4 -0.12,0.01 -0.24,0.02 -0.35,0.02zm-7.71 -5.64c-0.05,0 -0.09,-0 -0.14,-0.01 -0.21,-0.02 -0.39,-0.11 -0.55,-0.23 -0.12,-0.1 -0.22,-0.23 -0.29,-0.37 -0.06,-0.14 -0.1,-0.27 -0.1,-0.42 -0.01,-0.14 0.01,-0.28 0.06,-0.41 0.05,-0.13 0.12,-0.25 0.21,-0.36 0.09,-0.11 0.21,-0.2 0.35,-0.26l12.3 -5.74c0.15,-0.06 0.3,-0.09 0.46,-0.09 0.06,0 0.12,0.01 0.17,0.01 0.21,0.04 0.39,0.11 0.55,0.24 0.13,0.11 0.23,0.24 0.31,0.39 0.06,0.13 0.09,0.28 0.08,0.42 -0.01,0.15 -0.05,0.29 -0.11,0.43 -0.06,0.13 -0.15,0.27 -0.25,0.38 -0.11,0.11 -0.22,0.21 -0.36,0.27l-12.21 5.65c-0.15,0.07 -0.32,0.11 -0.48,0.11zm4.8 -5.95c-0.37,0 -0.74,-0.05 -1.11,-0.15 -0.48,-0.14 -0.92,-0.37 -1.32,-0.7 -0.4,-0.32 -0.71,-0.71 -0.94,-1.15 -0.23,-0.44 -0.36,-0.9 -0.41,-1.38 -0.05,-0.48 -0,-0.95 0.14,-1.42 0.15,-0.48 0.38,-0.92 0.71,-1.31 0.33,-0.39 0.73,-0.7 1.17,-0.92 0.45,-0.22 0.91,-0.36 1.4,-0.4 0.12,-0.01 0.24,-0.02 0.36,-0.02 0.36,0 0.73,0.05 1.09,0.16 0.48,0.14 0.93,0.37 1.32,0.7 0.4,0.33 0.71,0.71 0.94,1.15 0.22,0.44 0.36,0.9 0.4,1.37 0.05,0.48 -0.01,0.96 -0.15,1.43 -0.14,0.47 -0.38,0.9 -0.71,1.3 -0.33,0.4 -0.72,0.7 -1.16,0.93 -0.45,0.22 -0.91,0.35 -1.39,0.4 -0.11,0.01 -0.22,0.01 -0.33,0.01zm5.78 -29.73c-0.88,0 -1.69,0.4 -2.21,1.1 -1.3,1.75 -1.33,4.66 -0.11,8.64l-7.35 1.91c-1.11,0.29 -2.02,1.07 -2.48,2.12l-11.41 26.59c-0.36,0.83 0.05,1.78 0.9,2.12l22.37 8.83c0.2,0.08 0.4,0.12 0.61,0.12 0.64,0 1.25,-0.37 1.51,-0.98l11.13 -25.93c0.45,-1.04 0.38,-2.23 -0.17,-3.22l-7.66 -13.49 -0.82 0.21c-0.05,2.63 -0.46,5.2 -0.75,6.7 0.8,0.94 0.75,2.34 -0.15,3.22 -0.47,0.47 -1.09,0.7 -1.71,0.7 -0.62,0 -1.25,-0.23 -1.72,-0.7 -0.95,-0.94 -0.94,-2.45 0.01,-3.39 0.32,-0.32 0.72,-0.52 1.13,-0.62 0.29,-1.59 0.53,-3.44 0.61,-5.23l-2.59 0.67c-1.43,-4.62 -0.72,-6.6 -0.14,-7.39 0.32,-0.42 0.75,-0.49 0.98,-0.49l0.02 0c0.42,0 0.82,0.19 1.08,0.53 1.97,2.49 1.06,9.48 0.4,12.75 -0.08,0.39 0.17,0.77 0.57,0.86 0.06,0.01 0.11,0.02 0.17,0.02 0.35,0 0.66,-0.24 0.73,-0.59 0.51,-2.55 1.92,-10.87 -0.76,-14.05 -0.34,-0.4 -0.79,-0.71 -1.3,-0.86 -0.3,-0.09 -0.6,-0.13 -0.89,-0.13zm-8 30.65l-3.65 1.7c-0.34,0.16 -0.62,0.38 -0.84,0.64 -0.19,0.23 -0.34,0.49 -0.44,0.76 -0.11,0.29 -0.15,0.61 -0.14,0.93 0.01,0.34 0.09,0.66 0.25,1 0.16,0.33 0.38,0.6 0.67,0.84 0.38,0.3 0.82,0.48 1.25,0.52 0.11,0.01 0.22,0.02 0.32,0.02 0.37,0 0.73,-0.08 1.08,-0.24l1.7 -0.78c-0.01,0.02 -0.01,0.04 -0.02,0.06 -0.2,0.66 -0.27,1.33 -0.2,1.94 0.05,0.65 0.23,1.26 0.55,1.89 0.32,0.61 0.76,1.14 1.29,1.57 0.55,0.45 1.16,0.78 1.82,0.98 0.49,0.15 1,0.22 1.49,0.22 0.16,0 0.32,-0.01 0.49,-0.02 0.65,-0.06 1.29,-0.25 1.9,-0.55 0.61,-0.3 1.16,-0.73 1.63,-1.28 0.45,-0.54 0.78,-1.15 0.97,-1.8 0.2,-0.65 0.26,-1.31 0.2,-1.94 -0.05,-0.65 -0.24,-1.29 -0.56,-1.91 -0.32,-0.6 -0.75,-1.13 -1.3,-1.59 -0.41,-0.34 -0.86,-0.6 -1.32,-0.78l3.54 -1.64c0.3,-0.13 0.59,-0.33 0.83,-0.6 0.2,-0.22 0.37,-0.47 0.51,-0.76 0.13,-0.3 0.2,-0.59 0.22,-0.88 0.03,-0.38 -0.04,-0.75 -0.23,-1.16 -0.17,-0.32 -0.39,-0.6 -0.67,-0.83 -0.34,-0.27 -0.74,-0.45 -1.23,-0.54 -0.13,-0.02 -0.26,-0.03 -0.39,-0.03 -0.33,0 -0.66,0.06 -0.98,0.19l-0.04 0.02 -0.04 0.02 -1.43 0.67c0.15,-0.59 0.2,-1.16 0.15,-1.74 -0.05,-0.64 -0.24,-1.27 -0.55,-1.87 -0.31,-0.62 -0.75,-1.16 -1.29,-1.59 -0.54,-0.44 -1.15,-0.77 -1.84,-0.98 -0.49,-0.14 -0.99,-0.21 -1.48,-0.21 -0.17,0 -0.33,0.01 -0.47,0.02 -0.65,0.05 -1.29,0.24 -1.91,0.55 -0.61,0.3 -1.16,0.73 -1.64,1.29 -0.44,0.53 -0.77,1.14 -0.97,1.79 -0.2,0.64 -0.26,1.29 -0.2,1.95 0.07,0.65 0.25,1.28 0.56,1.89 0.33,0.62 0.77,1.15 1.3,1.58 0.35,0.28 0.71,0.51 1.11,0.69zm8.17 -20.12c-0.09,0.88 -0.2,1.69 -0.32,2.38 -0.32,0.17 -0.61,0.38 -0.87,0.64 -0.73,0.71 -1.12,1.66 -1.13,2.67 -0,1.01 0.39,1.97 1.12,2.68 0.73,0.72 1.69,1.12 2.72,1.12 1.02,0 1.98,-0.39 2.71,-1.1 1.22,-1.2 1.45,-3.07 0.65,-4.52 0.15,-0.81 0.32,-1.89 0.45,-3.1l6.05 10.67c0.35,0.62 0.39,1.37 0.11,2.01l-11.13 25.93c-0.04,0.1 -0.14,0.13 -0.21,0.13 -0.03,0 -0.06,-0.01 -0.08,-0.01l-22.36 -8.83c-0.07,-0.03 -0.11,-0.08 -0.12,-0.12 -0.02,-0.04 -0.03,-0.1 0,-0.17l11.41 -26.58c0.28,-0.66 0.84,-1.14 1.53,-1.32l7.35 -1.92 0.14 -0.04 1.31 -0.34 0.68 -0.17z"/>
     <path id="_1_6" fill="#231F20" fill-rule="nonzero" d="M48.76 87.43c-0.36,0 -0.73,-0.05 -1.09,-0.16 -0.48,-0.14 -0.92,-0.38 -1.32,-0.71 -0.4,-0.33 -0.72,-0.71 -0.94,-1.15 -0.22,-0.44 -0.36,-0.89 -0.4,-1.37 -0.05,-0.48 0,-0.95 0.14,-1.43 0.15,-0.47 0.38,-0.91 0.71,-1.3 0.33,-0.4 0.72,-0.71 1.16,-0.93 0.44,-0.23 0.91,-0.36 1.39,-0.41 0.12,-0.01 0.24,-0.02 0.36,-0.02 0.36,0 0.72,0.05 1.08,0.16 0.48,0.13 0.92,0.37 1.32,0.69 0.4,0.34 0.71,0.72 0.94,1.16 0.23,0.44 0.36,0.9 0.4,1.38 0.05,0.48 -0,0.95 -0.15,1.43 -0.14,0.47 -0.37,0.91 -0.71,1.31 -0.33,0.39 -0.72,0.7 -1.17,0.92 -0.45,0.22 -0.92,0.36 -1.4,0.4 -0.12,0.01 -0.24,0.02 -0.35,0.02zm-7.71 -5.64c-0.05,0 -0.09,-0 -0.14,-0.01 -0.21,-0.02 -0.39,-0.11 -0.55,-0.23 -0.12,-0.1 -0.22,-0.23 -0.29,-0.37 -0.06,-0.14 -0.1,-0.27 -0.1,-0.42 -0.01,-0.14 0.01,-0.28 0.06,-0.41 0.05,-0.13 0.12,-0.25 0.21,-0.36 0.09,-0.11 0.21,-0.2 0.35,-0.26l12.3 -5.74c0.15,-0.06 0.3,-0.09 0.46,-0.09 0.06,0 0.12,0.01 0.17,0.01 0.21,0.04 0.39,0.11 0.55,0.24 0.13,0.11 0.23,0.24 0.31,0.39 0.06,0.13 0.09,0.28 0.08,0.42 -0.01,0.15 -0.05,0.29 -0.11,0.43 -0.06,0.13 -0.15,0.27 -0.25,0.38 -0.11,0.11 -0.22,0.21 -0.36,0.27l-12.21 5.65c-0.15,0.07 -0.32,0.11 -0.48,0.11zm4.8 -5.95c-0.37,0 -0.74,-0.05 -1.11,-0.15 -0.48,-0.14 -0.92,-0.37 -1.32,-0.7 -0.4,-0.32 -0.71,-0.71 -0.94,-1.15 -0.23,-0.44 -0.36,-0.9 -0.41,-1.38 -0.05,-0.48 -0,-0.95 0.14,-1.42 0.15,-0.48 0.38,-0.92 0.71,-1.31 0.33,-0.39 0.73,-0.7 1.17,-0.92 0.45,-0.22 0.91,-0.36 1.4,-0.4 0.12,-0.01 0.24,-0.02 0.36,-0.02 0.36,0 0.73,0.05 1.09,0.16 0.48,0.14 0.93,0.37 1.32,0.7 0.4,0.33 0.71,0.71 0.94,1.15 0.22,0.44 0.36,0.9 0.4,1.37 0.05,0.48 -0.01,0.96 -0.15,1.43 -0.14,0.47 -0.38,0.9 -0.71,1.3 -0.33,0.4 -0.72,0.7 -1.16,0.93 -0.45,0.22 -0.91,0.35 -1.39,0.4 -0.11,0.01 -0.22,0.01 -0.33,0.01zm5.78 -29.73c-0.88,0 -1.69,0.4 -2.21,1.1 -1.3,1.75 -1.33,4.66 -0.11,8.64l-7.35 1.91c-1.11,0.29 -2.02,1.07 -2.48,2.12l-11.41 26.59c-0.36,0.83 0.05,1.78 0.9,2.12l22.37 8.83c0.2,0.08 0.4,0.12 0.61,0.12 0.64,0 1.25,-0.37 1.51,-0.98l11.13 -25.93c0.45,-1.04 0.38,-2.23 -0.17,-3.22l-7.66 -13.49 -0.82 0.21c-0.05,2.63 -0.46,5.2 -0.75,6.7 0.8,0.94 0.75,2.34 -0.15,3.22 -0.47,0.47 -1.09,0.7 -1.71,0.7 -0.62,0 -1.25,-0.23 -1.72,-0.7 -0.95,-0.94 -0.94,-2.45 0.01,-3.39 0.32,-0.32 0.72,-0.52 1.13,-0.62 0.29,-1.59 0.53,-3.44 0.61,-5.23l-2.59 0.67c-1.43,-4.62 -0.72,-6.6 -0.14,-7.39 0.32,-0.42 0.75,-0.49 0.98,-0.49l0.02 0c0.42,0 0.82,0.19 1.08,0.53 1.97,2.49 1.06,9.48 0.4,12.75 -0.08,0.39 0.17,0.77 0.57,0.86 0.06,0.01 0.11,0.02 0.17,0.02 0.35,0 0.66,-0.24 0.73,-0.59 0.51,-2.55 1.92,-10.87 -0.76,-14.05 -0.34,-0.4 -0.79,-0.71 -1.3,-0.86 -0.3,-0.09 -0.6,-0.13 -0.89,-0.13zm-8 30.65l-3.65 1.7c-0.34,0.16 -0.62,0.38 -0.84,0.64 -0.19,0.23 -0.34,0.49 -0.44,0.76 -0.11,0.29 -0.15,0.61 -0.14,0.93 0.01,0.34 0.09,0.66 0.25,1 0.16,0.33 0.38,0.6 0.67,0.84 0.38,0.3 0.82,0.48 1.25,0.52 0.11,0.01 0.22,0.02 0.32,0.02 0.37,0 0.73,-0.08 1.08,-0.24l1.7 -0.78c-0.01,0.02 -0.01,0.04 -0.02,0.06 -0.2,0.66 -0.27,1.33 -0.2,1.94 0.05,0.65 0.23,1.26 0.55,1.89 0.32,0.61 0.76,1.14 1.29,1.57 0.55,0.45 1.16,0.78 1.82,0.98 0.49,0.15 1,0.22 1.49,0.22 0.16,0 0.32,-0.01 0.49,-0.02 0.65,-0.06 1.29,-0.25 1.9,-0.55 0.61,-0.3 1.16,-0.73 1.63,-1.28 0.45,-0.54 0.78,-1.15 0.97,-1.8 0.2,-0.65 0.26,-1.31 0.2,-1.94 -0.05,-0.65 -0.24,-1.29 -0.56,-1.91 -0.32,-0.6 -0.75,-1.13 -1.3,-1.59 -0.41,-0.34 -0.86,-0.6 -1.32,-0.78l3.54 -1.64c0.3,-0.13 0.59,-0.33 0.83,-0.6 0.2,-0.22 0.37,-0.47 0.51,-0.76 0.13,-0.3 0.2,-0.59 0.22,-0.88 0.03,-0.38 -0.04,-0.75 -0.23,-1.16 -0.17,-0.32 -0.39,-0.6 -0.67,-0.83 -0.34,-0.27 -0.74,-0.45 -1.23,-0.54 -0.13,-0.02 -0.26,-0.03 -0.39,-0.03 -0.33,0 -0.66,0.06 -0.98,0.19l-0.04 0.02 -0.04 0.02 -1.43 0.67c0.15,-0.59 0.2,-1.16 0.15,-1.74 -0.05,-0.64 -0.24,-1.27 -0.55,-1.87 -0.31,-0.62 -0.75,-1.16 -1.29,-1.59 -0.54,-0.44 -1.15,-0.77 -1.84,-0.98 -0.49,-0.14 -0.99,-0.21 -1.48,-0.21 -0.17,0 -0.33,0.01 -0.47,0.02 -0.65,0.05 -1.29,0.24 -1.91,0.55 -0.61,0.3 -1.16,0.73 -1.64,1.29 -0.44,0.53 -0.77,1.14 -0.97,1.79 -0.2,0.64 -0.26,1.29 -0.2,1.95 0.07,0.65 0.25,1.28 0.56,1.89 0.33,0.62 0.77,1.15 1.3,1.58 0.35,0.28 0.71,0.51 1.11,0.69zm8.17 -20.12c-0.09,0.88 -0.2,1.69 -0.32,2.38 -0.32,0.17 -0.61,0.38 -0.87,0.64 -0.73,0.71 -1.12,1.66 -1.13,2.67 -0,1.01 0.39,1.97 1.12,2.68 0.73,0.72 1.69,1.12 2.72,1.12 1.02,0 1.98,-0.39 2.71,-1.1 1.22,-1.2 1.45,-3.07 0.65,-4.52 0.15,-0.81 0.32,-1.89 0.45,-3.1l6.05 10.67c0.35,0.62 0.39,1.37 0.11,2.01l-11.13 25.93c-0.04,0.1 -0.14,0.13 -0.21,0.13 -0.03,0 -0.06,-0.01 -0.08,-0.01l-22.36 -8.83c-0.07,-0.03 -0.11,-0.08 -0.12,-0.12 -0.02,-0.04 -0.03,-0.1 0,-0.17l11.41 -26.58c0.28,-0.66 0.84,-1.14 1.53,-1.32l7.35 -1.92 0.14 -0.04 1.31 -0.34 0.68 -0.17z"/>
    </g>
    <g>
     <path fill="none" fill-rule="nonzero" stroke="white" stroke-width="38.7" stroke-linejoin="round" stroke-miterlimit="10" d="M48.74 82.2c-0.04,0 -0.07,0 -0.11,0.01 -0.19,0.02 -0.38,0.07 -0.56,0.16 -0.18,0.09 -0.34,0.22 -0.47,0.38 -0.14,0.15 -0.23,0.33 -0.29,0.52 -0.06,0.19 -0.08,0.38 -0.06,0.58 0.01,0.2 0.07,0.38 0.17,0.55 0.09,0.18 0.21,0.32 0.37,0.46 0.16,0.13 0.34,0.22 0.53,0.28 0.15,0.04 0.3,0.06 0.45,0.06 0.05,0 0.09,-0 0.14,-0.01 0.2,-0.03 0.39,-0.08 0.56,-0.17 0.18,-0.09 0.34,-0.22 0.47,-0.38 0.14,-0.16 0.23,-0.33 0.29,-0.52 0.06,-0.2 0.08,-0.38 0.06,-0.57 -0.03,-0.19 -0.08,-0.38 -0.17,-0.55 -0.09,-0.17 -0.22,-0.33 -0.38,-0.46 -0.15,-0.13 -0.33,-0.22 -0.52,-0.28 -0.15,-0.04 -0.31,-0.07 -0.47,-0.07z"/>
     <path id="_1_7" fill="#231F20" fill-rule="nonzero" d="M48.74 82.2c-0.04,0 -0.07,0 -0.11,0.01 -0.19,0.02 -0.38,0.07 -0.56,0.16 -0.18,0.09 -0.34,0.22 -0.47,0.38 -0.14,0.15 -0.23,0.33 -0.29,0.52 -0.06,0.19 -0.08,0.38 -0.06,0.58 0.01,0.2 0.07,0.38 0.17,0.55 0.09,0.18 0.21,0.32 0.37,0.46 0.16,0.13 0.34,0.22 0.53,0.28 0.15,0.04 0.3,0.06 0.45,0.06 0.05,0 0.09,-0 0.14,-0.01 0.2,-0.03 0.39,-0.08 0.56,-0.17 0.18,-0.09 0.34,-0.22 0.47,-0.38 0.14,-0.16 0.23,-0.33 0.29,-0.52 0.06,-0.2 0.08,-0.38 0.06,-0.57 -0.03,-0.19 -0.08,-0.38 -0.17,-0.55 -0.09,-0.17 -0.22,-0.33 -0.38,-0.46 -0.15,-0.13 -0.33,-0.22 -0.52,-0.28 -0.15,-0.04 -0.31,-0.07 -0.47,-0.07z"/>
    </g>
    <g>
     <path fill="none" fill-rule="nonzero" stroke="white" stroke-width="38.7" stroke-linejoin="round" stroke-miterlimit="10" d="M40.31 55.02c-1,0 -1.95,0.44 -2.6,1.2l-17.13 20.1c-0.59,0.69 -0.48,1.72 0.23,2.29l6.72 5.35 10.74 -25.03c0.53,-1.23 1.61,-2.16 2.92,-2.5l4.59 -1.2 -5.34 -0.21c-0.05,-0 -0.09,-0 -0.13,-0zm-4.07 5.09l-9.28 21.61 -5.27 -4.19c-0.06,-0.05 -0.08,-0.11 -0.08,-0.15 -0,-0.04 0,-0.1 0.05,-0.16l14.58 -17.11z"/>
     <path id="_1_8" fill="#231F20" fill-rule="nonzero" d="M40.31 55.02c-1,0 -1.95,0.44 -2.6,1.2l-17.13 20.1c-0.59,0.69 -0.48,1.72 0.23,2.29l6.72 5.35 10.74 -25.03c0.53,-1.23 1.61,-2.16 2.92,-2.5l4.59 -1.2 -5.34 -0.21c-0.05,-0 -0.09,-0 -0.13,-0zm-4.07 5.09l-9.28 21.61 -5.27 -4.19c-0.06,-0.05 -0.08,-0.11 -0.08,-0.15 -0,-0.04 0,-0.1 0.05,-0.16l14.58 -17.11z"/>
    </g>
   </g>
  </g>
 </g>
</svg>
