<?xml version="1.0" encoding="UTF-8"?>
<!DOCTYPE svg PUBLIC "-//W3C//DTD SVG 1.0//EN" "http://www.w3.org/TR/2001/REC-SVG-20010904/DTD/svg10.dtd">
<!-- Creator: CorelDRAW -->
<svg xmlns="http://www.w3.org/2000/svg" xml:space="preserve" width="0.738287in" height="0.224087in" version="1.0" shape-rendering="geometricPrecision" text-rendering="geometricPrecision" image-rendering="optimizeQuality" fill-rule="evenodd" clip-rule="evenodd"
viewBox="0 0 541.21 164.27"
 xmlns:xlink="http://www.w3.org/1999/xlink"
 xmlns:xodm="http://www.corel.com/coreldraw/odm/2003">
 <g id="Layer_x0020_1">
  <metadata id="CorelCorpID_0Corel-Layer"/>
  <g id="_2675867207696">
   <path fill="white" fill-rule="nonzero" d="M297.53 158.79l0 -17.83c0,-1.73 1.25,-3.1 3.19,-3.1 0.24,0 0.45,0.03 0.68,0.06l0 7.54c0.63,-1.37 2.45,-2.24 4.29,-2.24 3.37,0 5.28,2.51 5.28,5.64l0 9.93 -3.88 0 0 -9.12c0,-1.82 -0.81,-2.95 -2.36,-2.95 -1.34,0 -2.12,0.86 -2.12,2.03 -0.45,-0.12 -1.02,-0.68 -1.23,-1.22l0 11.27 -3.87 0z"/>
   <path fill="white" fill-rule="nonzero" d="M323.39 143.11c3.91,0 6.47,2.09 6.47,5.1 0,3.04 -2.56,5.31 -5.96,5.31 -2.54,0 -4.24,-1.26 -4.24,-3.13 0,-0.45 0.09,-0.87 0.27,-1.31 0.96,0.83 2.12,1.28 3.1,1.28 2.03,0 3.46,-0.72 3.46,-1.97 0,-0.81 -0.83,-1.64 -2.8,-1.64 -3.01,0 -4.8,1.58 -4.8,4.29 0,2.66 1.73,4.33 4.15,4.33 1.25,0 2.62,-0.18 3.61,-1.13l2.24 2.57c-1.43,1.55 -3.34,2.33 -5.67,2.33 -4.83,0 -8.2,-3.37 -8.2,-8.02 0,-4.77 3.52,-7.99 8.38,-7.99z"/>
   <path fill="white" fill-rule="nonzero" d="M333.74 140.96c0,-1.7 1.37,-3.1 3.22,-3.1 0.21,0 0.42,0.03 0.66,0.06l0 20.87 -3.88 0 0 -17.83z"/>
   <path fill="white" fill-rule="nonzero" d="M342.69 140.96c0,-1.7 1.37,-3.1 3.22,-3.1 0.21,0 0.42,0.03 0.66,0.06l0 20.87 -3.88 0 0 -17.83z"/>
   <path fill="white" fill-rule="nonzero" d="M354.8 146.29c1.76,0 3.46,0.83 3.67,2.63 -0.33,-0.21 -0.74,-0.33 -1.16,-0.33 -1.16,0 -2.48,0.86 -2.48,2.56 0,2.86 1.94,4.27 4.06,4.27 2.09,0 4.29,-1.28 4.29,-4.29 0,-2.71 -1.79,-4.44 -4.09,-4.47 -0.33,0 -0.66,0.03 -0.98,0.12 -0.72,-0.87 -1.88,-1.34 -3.1,-1.34 -0.81,0 -1.61,0.18 -2.29,0.6 1.61,-1.94 3.79,-3.04 6.29,-3.04 4.74,0 8.11,4 8.11,8.29 -0.03,4.47 -3.7,7.82 -8.02,7.82 -4.65,0 -8.2,-3.82 -8.2,-8.2 0,-2.29 0.96,-4.59 3.91,-4.59z"/>
   <path fill="white" fill-rule="nonzero" d="M386.65 159.32c-3.49,0 -7.19,-2.76 -7.19,-7.87 0,-4.64 3.24,-8.26 7.37,-8.26 1.39,0 2.57,0.42 3.33,1.19 0.6,0.61 0.91,1.42 0.9,2.36 0,0.59 -0.1,1.09 -0.29,1.41l-0.14 0.24 -0.16 -0.23c-0.58,-0.85 -1.86,-1.15 -2.87,-1.15 -2.76,0 -4.03,2.26 -4.03,4.35 0,2 1.19,4.15 3.79,4.15 3.5,0 3.88,-3.92 3.88,-5.61l0 -12.14 0.15 -0.03c0.19,-0.03 0.38,-0.03 0.57,-0.03 1.71,0 3.52,1.15 3.52,3.28l0 17.98 -4.23 0 0 -1.43c-1.3,1.17 -2.89,1.79 -4.59,1.79z"/>
   <path fill="white" fill-rule="nonzero" d="M400.38 143.42c-0.33,-1.17 -0.48,-2.1 -0.48,-2.91 0,-1.86 0.84,-2.92 2.3,-2.92 1.65,0 2.53,1.3 2.53,2.53 0,1.45 -1.17,1.94 -2.36,2.32 -1.11,0.34 -1.46,0.56 -1.65,1l-0.2 0.48 -0.14 -0.5zm-0.25 15.55l0 -12.5c0,-1.89 1.49,-3.37 3.4,-3.37 0.22,0 0.47,0.03 0.68,0.06l0.15 0.03 0 15.78 -4.23 0z"/>
   <path fill="white" fill-rule="nonzero" d="M414.15 159.26c-2.23,0 -4.27,-0.99 -5.57,-2.72l-0.09 -0.12 2.63 -2.82 0.13 0.15c1.29,1.5 2.59,1.67 3.09,1.67 0.87,0 1.49,-0.4 1.49,-0.95 0,-0.79 -1.1,-1.36 -2.36,-2.02 -1.94,-1 -4.35,-2.25 -4.35,-5.05 0,-3 2.66,-4.56 5.28,-4.56 2.12,0 4.26,0.92 4.26,2.98 0,1.09 -0.61,2.03 -1.6,2.46l-0.17 0.08 -0.07 -0.17c-0.4,-1.03 -1.54,-1.49 -2.42,-1.49 -0.29,0 -1.26,0.05 -1.26,0.77 0,0.64 0.92,1.05 2.08,1.57 1.93,0.86 4.57,2.05 4.57,5.28 0,3.25 -2.84,4.95 -5.64,4.95z"/>
   <path fill="white" fill-rule="nonzero" d="M431.12 159.21c-4.79,0 -8.26,-3.54 -8.26,-8.41 0,-4.42 3.65,-7.88 8.32,-7.88 3.19,0 5.36,1.88 5.78,3.66 0.27,1.13 -0.19,2.12 -1.23,2.65l-0.19 0.1 -0.06 -0.21c-0.37,-1.31 -1.88,-2.14 -3.95,-2.16l0 0c-2.71,0 -4.41,1.6 -4.41,4.08 0,2.57 1.47,4.11 3.94,4.11 1.71,0 2.83,-0.46 3.62,-1.48l0.12 -0.16 2.67 2.51 -0.09 0.13c-1.42,2.06 -3.47,3.06 -6.26,3.06z"/>
   <path fill="white" fill-rule="nonzero" d="M449.01 159.26c-4.62,0 -8.38,-3.76 -8.38,-8.38 0,-1.43 0.4,-4.77 4.09,-4.77 1.62,0 3.61,0.73 3.85,2.78l0.04 0.38 -0.32 -0.2c-0.3,-0.19 -0.68,-0.3 -1.06,-0.3 -1.11,0 -2.29,0.84 -2.29,2.38 0,2.82 1.95,4.08 3.88,4.08 2.05,0 4.12,-1.27 4.12,-4.11 0,-2.5 -1.61,-4.27 -3.91,-4.29 -0.35,0 -0.65,0.04 -0.93,0.11l-0.11 0.03 -0.08 -0.09c-0.66,-0.8 -1.77,-1.28 -2.96,-1.28 -0.83,0 -1.59,0.2 -2.2,0.57l-0.92 0.56 0.69 -0.83c1.69,-2.03 3.91,-3.11 6.43,-3.11 4.57,0 8.29,3.8 8.29,8.47 -0.03,4.48 -3.63,7.99 -8.2,7.99z"/>
   <path fill="white" fill-rule="nonzero" d="M467.8 159.24c-6.1,0 -6.92,-4.46 -6.92,-8.83l0 -3.97c0,-2.11 1.18,-3.31 3.25,-3.31 0.24,0 0.48,0.02 0.74,0.05l0.16 0.02 0.11 0.17 0 7.4c0,2.65 0.19,4.53 2.66,4.53 2.54,0 2.74,-1.91 2.74,-4.41l0 -7.69 4.21 0 0 6.68c0.04,3.71 -0.63,6.14 -2.1,7.64 -1.13,1.14 -2.76,1.72 -4.85,1.72z"/>
   <path fill="white" fill-rule="nonzero" d="M488.62 158.97l0 -9.45c0,-1.24 -0.61,-2.56 -2.32,-2.56 -0.71,0 -1.31,0.21 -1.65,0.59 -0.24,0.26 -0.35,0.58 -0.31,0.94l0.02 0.27 -0.25 -0.08c-0.35,-0.11 -0.73,-0.42 -1.02,-0.8l0 11.09 -4.2 0 0 -15.78 4.2 0 0 1.33c0.94,-1.14 2.84,-1.56 4.02,-1.56 3.45,0 5.76,2.37 5.76,5.9l0 10.11 -4.24 0z"/>
   <path fill="white" fill-rule="nonzero" d="M502.16 159.12c-1.78,0 -3.58,-1.21 -3.58,-3.52l0 -8.83 -1.91 0 0 -3.58 1.91 0 0 -0.66c0,-2.11 1.78,-3.25 3.46,-3.25 0.04,-0.01 0.11,-0.01 0.18,-0.01 0.13,0 0.27,0.02 0.4,0.04l0.16 0.02 0.04 0.16 0 3.7 3.46 0 0 0.18c0,2.23 -0.97,3.4 -2.8,3.4l-0.66 0 0 7.75c0,0.47 0.4,0.83 0.92,0.83 0.76,0 1.35,-0.21 1.58,-0.57l0.2 -0.31 0.13 0.35c0.12,0.34 0.19,0.69 0.19,1.02 0,1.63 -1.26,3.28 -3.67,3.28z"/>
   <path fill="white" fill-rule="nonzero" d="M514.96 159.26c-2.24,0 -4.27,-0.99 -5.57,-2.72l-0.09 -0.12 2.63 -2.82 0.13 0.15c1.29,1.5 2.59,1.67 3.09,1.67 0.86,0 1.49,-0.4 1.49,-0.95 0,-0.79 -1.1,-1.36 -2.36,-2.02 -1.94,-1 -4.35,-2.25 -4.35,-5.05 0,-3 2.66,-4.56 5.28,-4.56 2.12,0 4.27,0.92 4.27,2.98 0,1.09 -0.61,2.03 -1.6,2.46l-0.17 0.08 -0.07 -0.17c-0.4,-1.03 -1.54,-1.49 -2.43,-1.49 -0.29,0 -1.25,0.05 -1.25,0.77 0,0.64 0.92,1.05 2.08,1.57 1.93,0.86 4.57,2.05 4.57,5.28 0,3.25 -2.84,4.95 -5.64,4.95z"/>
   <path fill="white" fill-rule="nonzero" d="M528.58 153.09c-2.53,-0.08 -3.93,-1.17 -3.93,-3.07l0 -12.28 4.12 0 0 15.36 -0.19 -0.01zm-1.84 6.17c-1.65,0 -2.63,-1.19 -2.63,-3.19 0,-1.03 0.2,-2.02 0.51,-3.18l0.14 -0.53 0.2 0.52c0.25,0.65 0.99,0.85 1.77,1.07 0.66,0.18 1.35,0.38 1.83,0.86 0.47,0.47 0.74,1.14 0.74,1.83 0,1.44 -1.15,2.62 -2.57,2.62z"/>
   <path fill="white" fill-rule="nonzero" d="M367.66 159.77l1.08 -2.8c0.36,-0.93 0.83,-1.44 1.55,-1.44 0.51,0 1.13,0.29 2,0.85l-2.33 3.31c-0.23,0.32 -0.59,0.49 -0.96,0.49 -0.32,0 -0.83,-0.15 -1.34,-0.42z"/>
   <path fill="white" fill-rule="nonzero" d="M237.26 101.56c-12.11,0 -21.86,-9.75 -21.86,-21.86 0,-12.11 9.75,-21.86 21.86,-21.86 11.93,0 21.86,9.75 21.86,21.86 0,12.11 -9.93,21.86 -21.86,21.86zm22.04 -61.97c-6.69,-3.62 -14.09,-5.61 -22.04,-5.61 -25.3,0 -45.9,20.42 -45.9,45.72 0,25.3 20.6,45.9 45.9,45.9 7.95,0 15.35,-2.18 22.04,-5.79 -0.18,11.39 -9.39,20.42 -20.6,20.42l-24.02 0 0 24.04 27.28 0c22.76,0 41.2,-18.42 41.2,-41.2l0 -88.55 -23.86 5.07z"/>
   <path fill="white" fill-rule="nonzero" d="M317.13 79.16l35.96 -16.08c-3.8,-3.26 -8.85,-5.24 -14.1,-5.24 -11.93,0 -21.68,9.58 -21.86,21.32zm39.03 13.91c6.5,3.61 15.18,8.49 20.96,11.74 -8.13,12.47 -22.23,20.78 -38.13,20.78 -25.3,0 -45.9,-20.6 -45.9,-45.9 0,-25.3 20.6,-45.72 45.9,-45.72 15.18,0 28.55,7.41 36.86,18.79 3.8,5.06 6.51,10.84 7.77,17.17l-22.95 10.3 -35.96 16.08c3.98,3.25 8.85,5.24 14.27,5.24 6.87,0 13.19,-3.25 17.17,-8.49z"/>
   <path fill="white" fill-rule="nonzero" d="M436.58 100.84c-8.49,0 -15.35,-6.87 -15.35,-15.55l0 -26.74 18.25 0 0 -24.04 -18.25 0 0 -20.39 -24.04 0 0 20.39 -8.13 0 0 24.04 8.13 0 0 33.97c0,17.88 14.46,32.35 32.35,32.35l13.73 0 0 -24.04 -6.69 0z"/>
   <polygon fill="white" fill-rule="nonzero" points="453.21,34.52 477.06,34.52 477.06,124.87 453.21,124.87 "/>
   <path fill="white" fill-rule="nonzero" d="M534.53 100.84c-8.49,0 -15.37,-6.87 -15.37,-15.55l0 -26.74 18.26 0 0 -24.04 -18.26 0 0 -20.39 -24.02 0 0 20.39 -8.13 0 0 24.04 8.13 0 0 33.97c0,17.88 14.45,32.35 32.34,32.35l13.73 0 0 -24.04 -6.68 0z"/>
   <path fill="white" fill-rule="nonzero" d="M479.26 14.13c0,7.8 -6.32,14.12 -14.12,14.12 -7.8,0 -14.12,-6.32 -14.12,-14.12 0,-7.8 6.32,-14.12 14.12,-14.12 7.8,0 14.12,6.32 14.12,14.12z"/>
   <path fill="white" fill-rule="nonzero" d="M157.09 32.45c-2.21,-1.08 -4.63,-1.64 -7.15,-1.64 -1.41,0 -2.8,0.17 -4.15,0.53l-74.4 18.9 -2.55 -4.59c-2.5,-4.51 -6.8,-7.78 -11.81,-9l-12.14 -2.96c-0.98,-0.29 -2.01,-0.43 -3.04,-0.43 -4.64,0 -8.77,2.94 -10.27,7.36 -1.39,4.13 -0.16,8.54 2.81,11.35l-7.79 9.26 -15.14 3.34c8.03,-36.93 40.91,-64.58 80.24,-64.58 26.69,0 50.4,12.73 65.4,32.45z"/>
   <path fill="white" fill-rule="nonzero" d="M173.82 82.14c0,45.36 -36.75,82.13 -82.12,82.13 -34.32,0 -63.71,-21.05 -75.99,-50.94 1.94,1.72 4.47,2.76 7.19,2.76l0.31 0 0.19 -0.01c0.62,-0.03 1.22,-0.11 1.83,-0.24l10.53 -2.31c-0.4,1.6 -0.43,3.28 -0.07,4.95 1.09,4.93 5.55,8.5 10.6,8.51l0.31 -0.01 0.18 0c0.61,-0.04 1.23,-0.12 1.85,-0.25l28.32 -6.25c3.61,-0.81 6.4,-3.32 7.7,-6.52 2.37,1.88 5,3.43 7.81,4.56 -1.41,1.55 -2.57,3.32 -3.39,5.27 -1.61,3.81 -1.56,7.01 -1.4,8.52 0.51,7.73 6.88,13.73 14.66,13.73 1.32,0 2.63,-0.17 3.9,-0.53 5.43,-1.45 9.57,-5.98 10.57,-11.5 0.16,-0.89 0.24,-1.77 0.24,-2.66l6.46 -1.6c2.39,4.89 7.41,8.21 13.21,8.21 0.2,0 0.4,0 0.61,-0.01 3.93,-0.16 7.55,-1.85 10.22,-4.74 2.65,-2.89 4.03,-6.64 3.86,-10.57 0,-0.05 0,-0.09 -0.01,-0.15 3.18,-1.44 5.83,-3.82 7.62,-6.89 2.33,-3.97 2.95,-8.62 1.74,-13.09 -0.94,-3.51 -2.98,-6.52 -5.66,-8.71 5.75,-4.24 9.47,-10.89 9.88,-18.38l1.51 -26.74c0.01,-0.16 0.01,-0.34 0.01,-0.51 4.7,10.36 7.32,21.85 7.32,33.97z"/>
   <path fill="white" fill-rule="nonzero" d="M20.91 71.18l-4.65 5.52c-0.23,0.27 -0.41,0.56 -0.57,0.88l-7.98 1.76c-0.16,0.03 -0.32,0.06 -0.47,0.06 -1.32,0.06 -2.53,-0.83 -2.83,-2.16 -0.33,-1.49 0.62,-2.97 2.11,-3.3l14.39 -2.76z"/>
   <path fill="white" fill-rule="nonzero" d="M21.48 89.52c-0.33,-1.49 -1.82,-2.43 -3.3,-2.11l-16 3.54c-1.49,0.33 -2.44,1.81 -2.11,3.3 0.29,1.33 1.5,2.23 2.82,2.17 0.16,-0.01 0.32,-0.03 0.48,-0.06l16 -3.54c1.49,-0.33 2.44,-1.81 2.11,-3.3z"/>
   <path fill="white" fill-rule="nonzero" d="M38.61 98.94l9.14 3.66 -24.25 5.35c-0.17,0.04 -0.33,0.06 -0.49,0.07 -1.32,0.04 -2.53,-0.85 -2.81,-2.18 -0.33,-1.49 0.6,-2.97 2.11,-3.3l16.3 -3.6z"/>
   <path fill="white" fill-rule="nonzero" d="M67.84 98.16l-13.63 3.02c0.13,-0.2 0.23,-0.42 0.33,-0.65l2.38 -5.64 9.71 -2.14c1.49,-0.33 2.98,0.62 3.3,2.11 0.33,1.49 -0.6,2.97 -2.1,3.3z"/>
   <path fill="white" fill-rule="nonzero" d="M74 107.17l-28.32 6.26c-1.49,0.33 -2.44,1.81 -2.11,3.3 0.29,1.33 1.5,2.23 2.82,2.17 0.16,-0.01 0.32,-0.03 0.48,-0.06l28.32 -6.26c1.49,-0.33 2.44,-1.81 2.11,-3.3 -0.33,-1.49 -1.81,-2.43 -3.3,-2.11z"/>
   <path fill="white" fill-rule="nonzero" d="M136.61 86.32l-4.15 -15.63 19.43 -4.94 -0.52 8.89c-0.26,4.8 -3.59,8.84 -8.27,10.03l-6.49 1.64zm-9.59 -36.16l22.15 -5.64c0.93,-0.24 1.9,-0.03 2.65,0.59 0.74,0.61 1.13,1.52 1.08,2.49l-0.7 12.36 -21.14 5.37 -4.03 -15.17zm-13.38 42l-4.46 -15.56 17.93 -4.54 4.15 15.63 -17.61 4.47zm-10.3 -35.99l18.33 -4.67 4.02 15.2 -18.01 4.58 -4.33 -15.11zm-14.48 42.29c-0.12,-0.2 -0.26,-0.38 -0.36,-0.58l-7.78 -14.06 23.08 -5.86 4.46 15.56 -19.41 4.93zm-18.76 -33.86l27.88 -7.08 4.31 15.11 -24.33 6.19 -7.86 -14.22zm86.81 10.35l1.51 -26.7c0.13,-2.56 -0.7,-5.15 -2.55,-6.94 -2.18,-2.11 -5.17,-2.91 -8.08,-2.16l-80.46 20.44 -5.54 -10.03c-1.42,-2.55 -3.82,-4.39 -6.66,-5.08l-12.38 -3.01c-1.45,-0.5 -3.02,0.27 -3.52,1.72 -0.49,1.46 0.27,3.04 1.72,3.54l10.28 2.36c2.87,0.66 5.34,2.51 6.77,5.1l25.64 46.38c5.14,9.32 15.95,14.01 26.28,11.45l33.55 -8.37c1.79,-0.44 3.63,0.64 4.13,2.42 0.24,0.89 0.11,1.84 -0.35,2.64 -0.46,0.79 -1.22,1.36 -2.14,1.58l-40.83 10.19c-3.44,0.86 -6.42,3.17 -7.8,6.44 -1.13,2.68 -0.8,4.68 -0.8,4.68 0.18,4.15 4.15,7.26 8.42,6.11 2.4,-0.65 4.28,-2.7 4.72,-5.14 0.51,-2.84 -0.77,-5.42 -2.89,-6.78l25.34 -6.33c-0.81,1.15 -1.28,2.55 -1.22,4.07 0.15,3.66 3.24,6.5 6.9,6.34 3.66,-0.16 6.49,-3.24 6.34,-6.9 -0.1,-2.48 -1.57,-4.56 -3.64,-5.61l6.79 -1.7c2.36,-0.58 4.33,-2.07 5.56,-4.17 1.23,-2.09 1.55,-4.54 0.91,-6.88 -1.27,-4.68 -6.12,-7.51 -10.82,-6.35l-33.53 8.37c-5.62,1.4 -11.39,-0.02 -15.69,-3.48l51.56 -13.12c7,-1.77 12.04,-7.88 12.44,-15.08z"/>
   <path fill="white" fill-rule="nonzero" d="M44.11 72.69c-0.03,0 -0.07,0 -0.11,0 -0.19,0.02 -0.38,0.07 -0.57,0.17 -0.18,0.09 -0.34,0.22 -0.48,0.39 -0.14,0.16 -0.24,0.34 -0.3,0.54 -0.06,0.2 -0.08,0.39 -0.06,0.6 0.02,0.19 0.08,0.39 0.17,0.57 0.09,0.18 0.22,0.34 0.39,0.47 0.15,0.13 0.34,0.23 0.53,0.29 0.15,0.04 0.29,0.07 0.44,0.07 0.05,0 0.1,-0 0.15,-0.01 0.19,-0.02 0.39,-0.08 0.57,-0.16 0.18,-0.1 0.34,-0.23 0.48,-0.39 0.13,-0.17 0.23,-0.35 0.29,-0.55 0.05,-0.2 0.08,-0.39 0.05,-0.59 -0.01,-0.2 -0.08,-0.39 -0.16,-0.57 -0.1,-0.18 -0.22,-0.34 -0.38,-0.48 -0.17,-0.14 -0.35,-0.23 -0.55,-0.29 -0.16,-0.04 -0.32,-0.07 -0.48,-0.07z"/>
   <path fill="white" fill-rule="nonzero" d="M47.12 90.01c-0.37,0 -0.74,-0.05 -1.11,-0.16 -0.49,-0.15 -0.94,-0.39 -1.34,-0.73 -0.41,-0.33 -0.73,-0.73 -0.96,-1.18 -0.23,-0.45 -0.36,-0.91 -0.41,-1.41 -0.05,-0.49 0,-0.98 0.15,-1.47 0.15,-0.49 0.39,-0.94 0.72,-1.34 0.33,-0.41 0.73,-0.73 1.18,-0.96 0.46,-0.24 0.93,-0.38 1.42,-0.42 0.12,-0.01 0.24,-0.02 0.36,-0.02 0.37,0 0.74,0.05 1.1,0.16 0.49,0.14 0.94,0.38 1.34,0.71 0.41,0.35 0.72,0.74 0.96,1.19 0.23,0.46 0.37,0.93 0.41,1.43 0.05,0.49 0,0.98 -0.15,1.47 -0.14,0.48 -0.38,0.94 -0.72,1.35 -0.34,0.4 -0.73,0.72 -1.19,0.95 -0.46,0.23 -0.93,0.37 -1.42,0.42 -0.12,0.01 -0.24,0.02 -0.36,0.02zm-7.84 -5.81c-0.05,0 -0.1,-0 -0.14,-0.01 -0.22,-0.02 -0.4,-0.11 -0.56,-0.24 -0.12,-0.1 -0.22,-0.23 -0.3,-0.38 -0.06,-0.14 -0.1,-0.28 -0.1,-0.43 -0.01,-0.15 0.01,-0.29 0.06,-0.43 0.05,-0.13 0.12,-0.26 0.21,-0.37 0.09,-0.11 0.22,-0.2 0.36,-0.27l12.51 -5.91c0.16,-0.06 0.31,-0.09 0.46,-0.09 0.06,0 0.12,0.01 0.18,0.01 0.21,0.04 0.4,0.12 0.57,0.25 0.13,0.11 0.23,0.24 0.31,0.4 0.07,0.14 0.09,0.29 0.08,0.44 -0.01,0.15 -0.05,0.29 -0.11,0.45 -0.07,0.14 -0.16,0.27 -0.26,0.39 -0.11,0.12 -0.23,0.21 -0.36,0.27l-12.41 5.82c-0.16,0.07 -0.32,0.11 -0.48,0.11zm4.88 -6.13c-0.38,0 -0.75,-0.05 -1.13,-0.16 -0.49,-0.15 -0.93,-0.38 -1.34,-0.72 -0.41,-0.33 -0.72,-0.73 -0.96,-1.19 -0.23,-0.46 -0.37,-0.93 -0.42,-1.42 -0.05,-0.49 -0,-0.98 0.14,-1.46 0.15,-0.49 0.38,-0.94 0.72,-1.35 0.34,-0.4 0.74,-0.72 1.19,-0.95 0.46,-0.23 0.93,-0.38 1.42,-0.42 0.12,-0.01 0.24,-0.02 0.36,-0.02 0.37,0 0.74,0.05 1.11,0.16 0.49,0.15 0.94,0.39 1.34,0.72 0.41,0.33 0.72,0.73 0.96,1.19 0.23,0.45 0.36,0.92 0.4,1.41 0.05,0.5 -0.01,0.98 -0.15,1.47 -0.14,0.48 -0.38,0.93 -0.72,1.34 -0.33,0.41 -0.73,0.72 -1.18,0.96 -0.46,0.23 -0.92,0.36 -1.41,0.41 -0.11,0.01 -0.23,0.02 -0.34,0.02zm5.88 -30.64c-0.9,0 -1.72,0.42 -2.25,1.13 -1.32,1.8 -1.36,4.8 -0.11,8.9l-7.47 1.97c-1.13,0.3 -2.06,1.11 -2.52,2.18l-11.61 27.39c-0.36,0.85 0.05,1.84 0.91,2.19l22.75 9.1c0.2,0.08 0.41,0.12 0.61,0.12 0.65,0 1.27,-0.38 1.53,-1.02l11.32 -26.72c0.46,-1.07 0.39,-2.3 -0.18,-3.32l-7.79 -13.91 -0.84 0.22c-0.05,2.71 -0.47,5.36 -0.76,6.9 0.81,0.97 0.76,2.41 -0.15,3.32 -0.48,0.48 -1.11,0.72 -1.74,0.72 -0.63,0 -1.26,-0.24 -1.75,-0.73 -0.96,-0.96 -0.96,-2.53 0.01,-3.48 0.33,-0.33 0.73,-0.54 1.15,-0.65 0.29,-1.63 0.54,-3.54 0.62,-5.38l-2.63 0.69c-1.46,-4.76 -0.73,-6.8 -0.14,-7.61 0.32,-0.44 0.76,-0.51 1,-0.51l0.02 0c0.43,0 0.83,0.2 1.1,0.54 2.01,2.57 1.08,9.78 0.4,13.14 -0.08,0.41 0.17,0.8 0.57,0.89 0.06,0.01 0.12,0.02 0.17,0.02 0.35,0 0.67,-0.25 0.74,-0.61 0.52,-2.62 1.96,-11.2 -0.78,-14.48 -0.34,-0.41 -0.81,-0.73 -1.32,-0.89 -0.3,-0.09 -0.61,-0.14 -0.9,-0.14zm-8.14 31.58l-3.71 1.76c-0.34,0.16 -0.63,0.39 -0.85,0.66 -0.19,0.24 -0.35,0.5 -0.45,0.79 -0.11,0.3 -0.16,0.63 -0.15,0.96 0.01,0.35 0.09,0.68 0.25,1.03 0.17,0.33 0.39,0.62 0.68,0.86 0.39,0.31 0.83,0.5 1.27,0.54 0.11,0.01 0.22,0.02 0.33,0.02 0.38,0 0.75,-0.08 1.09,-0.25l1.72 -0.81c-0.01,0.02 -0.01,0.04 -0.02,0.06 -0.2,0.68 -0.27,1.37 -0.2,2 0.05,0.67 0.24,1.3 0.56,1.95 0.32,0.63 0.77,1.17 1.31,1.62 0.55,0.47 1.18,0.81 1.85,1.01 0.5,0.15 1.01,0.23 1.52,0.23 0.16,0 0.33,-0.01 0.5,-0.03 0.66,-0.06 1.31,-0.25 1.92,-0.56 0.63,-0.31 1.18,-0.75 1.66,-1.32 0.46,-0.56 0.79,-1.18 0.98,-1.85 0.2,-0.67 0.27,-1.34 0.2,-2 -0.05,-0.67 -0.24,-1.33 -0.57,-1.97 -0.32,-0.61 -0.76,-1.16 -1.32,-1.64 -0.42,-0.35 -0.88,-0.62 -1.35,-0.81l3.6 -1.69c0.31,-0.13 0.59,-0.34 0.85,-0.62 0.2,-0.23 0.38,-0.48 0.51,-0.79 0.13,-0.3 0.2,-0.6 0.23,-0.91 0.03,-0.39 -0.04,-0.78 -0.23,-1.2 -0.17,-0.33 -0.4,-0.62 -0.68,-0.86 -0.35,-0.29 -0.76,-0.47 -1.25,-0.56 -0.13,-0.02 -0.26,-0.03 -0.39,-0.03 -0.33,0 -0.67,0.07 -0.99,0.19l-0.04 0.02 -0.04 0.02 -1.45 0.69c0.16,-0.61 0.21,-1.2 0.15,-1.8 -0.06,-0.66 -0.24,-1.3 -0.55,-1.93 -0.32,-0.64 -0.76,-1.19 -1.31,-1.64 -0.55,-0.46 -1.17,-0.8 -1.88,-1.01 -0.5,-0.14 -1.01,-0.21 -1.5,-0.21 -0.17,0 -0.33,0.01 -0.48,0.02 -0.66,0.06 -1.31,0.25 -1.94,0.56 -0.62,0.31 -1.18,0.75 -1.66,1.32 -0.45,0.55 -0.78,1.17 -0.98,1.85 -0.2,0.66 -0.26,1.33 -0.2,2.01 0.06,0.66 0.25,1.31 0.57,1.95 0.33,0.64 0.78,1.19 1.32,1.63 0.35,0.29 0.72,0.53 1.13,0.72zm8.31 -20.73c-0.09,0.9 -0.21,1.74 -0.32,2.45 -0.33,0.18 -0.62,0.4 -0.89,0.66 -0.74,0.74 -1.14,1.71 -1.15,2.76 -0,1.04 0.4,2.02 1.13,2.76 0.74,0.74 1.72,1.15 2.76,1.15 1.04,0 2.02,-0.4 2.75,-1.13 1.25,-1.24 1.48,-3.16 0.66,-4.65 0.15,-0.83 0.32,-1.95 0.46,-3.19l6.16 10.99c0.35,0.63 0.4,1.4 0.11,2.06l-11.32 26.72c-0.04,0.1 -0.14,0.14 -0.21,0.14 -0.03,0 -0.05,-0.01 -0.08,-0.01l-22.75 -9.1c-0.07,-0.03 -0.11,-0.08 -0.12,-0.12 -0.02,-0.04 -0.03,-0.1 0,-0.17l11.61 -27.39c0.29,-0.68 0.86,-1.17 1.56,-1.36l7.47 -1.97 0.14 -0.04 1.33 -0.35 0.69 -0.18z"/>
   <path fill="white" fill-rule="nonzero" d="M47.1 84.62c-0.04,0 -0.08,0 -0.11,0 -0.19,0.02 -0.39,0.08 -0.57,0.17 -0.18,0.1 -0.34,0.22 -0.48,0.39 -0.14,0.16 -0.24,0.34 -0.29,0.54 -0.06,0.2 -0.08,0.39 -0.06,0.59 0.02,0.2 0.08,0.39 0.17,0.57 0.09,0.18 0.22,0.33 0.38,0.48 0.16,0.13 0.35,0.23 0.54,0.29 0.15,0.05 0.31,0.07 0.46,0.07 0.05,0 0.1,-0 0.14,-0.01 0.2,-0.03 0.4,-0.08 0.57,-0.17 0.18,-0.1 0.35,-0.23 0.48,-0.39 0.14,-0.16 0.24,-0.35 0.29,-0.54 0.06,-0.2 0.08,-0.39 0.06,-0.59 -0.03,-0.2 -0.08,-0.39 -0.17,-0.57 -0.1,-0.18 -0.23,-0.34 -0.39,-0.48 -0.16,-0.13 -0.33,-0.23 -0.53,-0.29 -0.16,-0.04 -0.32,-0.07 -0.48,-0.07z"/>
   <path fill="white" fill-rule="nonzero" d="M38.52 56.61c-1.02,0 -1.98,0.45 -2.64,1.23l-17.42 20.71c-0.6,0.71 -0.5,1.77 0.23,2.36l6.84 5.52 10.93 -25.79c0.54,-1.27 1.63,-2.22 2.97,-2.57l4.67 -1.24 -5.43 -0.22c-0.05,-0 -0.1,-0 -0.14,-0zm-4.14 5.24l-9.44 22.27 -5.36 -4.32c-0.06,-0.05 -0.08,-0.11 -0.08,-0.15 -0.01,-0.04 0,-0.11 0.05,-0.16l14.83 -17.63z"/>
  </g>
 </g>
</svg>
